<svg width="171" height="51" viewBox="0 0 171 51" fill="none" xmlns="http://www.w3.org/2000/svg">
<path d="M162.493 10.0955L161.08 15.4931H140.132L143.602 10.0955H162.493ZM160.405 17.5814L158.863 23.4288H148.421L147.586 26.4489H157.931L156.389 32.2321H137.529L141.449 17.5814H160.405Z" fill="#EEEEEE"/>
<path d="M138.217 15.4931H115.951L119.389 10.0955H132.337C133.751 10.0955 135.068 10.6524 136.289 11.7662C137.51 12.8585 138.152 14.1008 138.217 15.4931ZM138.602 17.5814C138.602 21.3512 137.874 24.307 136.417 26.4489C135.239 28.1839 134.168 29.4155 133.205 30.1437C131.277 31.5788 128.846 32.2963 125.911 32.2963H113.156L117.365 17.5814H125.269L122.602 26.5453C123.116 26.7595 123.662 26.8666 124.241 26.8666C125.312 26.8666 126.425 26.5346 127.582 25.8706C129.445 24.8211 130.666 23.311 131.245 21.3405C131.545 20.3338 131.716 19.0808 131.759 17.5814H138.602Z" fill="#EEEEEE"/>
<path d="M82.8204 10.0955L81.2139 15.461H73.4388L74.9167 10.1597L82.8204 10.0955ZM88.8606 26.7702L84.3625 32.2321H68.748L72.8926 17.5814H80.6999L78.1296 26.7381L88.8606 26.7702Z" fill="#EEEEEE"/>
<path d="M69.356 15.4927H46.2877L50.9142 9.99867H65.2114C68.0173 9.99867 69.4203 11.5087 69.4203 14.5288C69.4203 14.8287 69.3989 15.15 69.356 15.4927ZM69.1632 17.6132C69.1632 18.984 68.3279 19.9907 66.6572 20.6332C67.2784 21.6828 67.6104 22.2397 67.6532 22.3039C67.8888 22.8394 68.0066 23.5248 68.0066 24.3602C68.0066 24.4458 68.0066 24.66 68.0066 25.0027C67.8781 27.1232 67.0213 28.8368 65.4363 30.1433C64.2154 31.1928 62.8875 31.8997 61.4524 32.2638L43.9102 32.2317L48.1833 17.6132H69.1632ZM59.0427 25.1955C59.0427 24.5529 58.8178 24.1888 58.368 24.1031H53.356L52.7455 26.3521H57.7255C58.0253 26.3521 58.3145 26.2343 58.5929 25.9987C58.8928 25.7631 59.0427 25.4954 59.0427 25.1955Z" fill="#EEEEEE"/>
<path d="M129 35.3713H140.113L139.036 38.3605H130.893L130.48 39.8964H138.569L137.818 42.3406H129.819L129.39 43.9426H137.359L136.567 46.9318H125.895C125.319 46.9318 123.801 46.9318 123.801 46.9318C123.801 46.9318 124.229 45.4144 124.376 44.8509L126.358 37.4522C126.518 36.87 127.013 35.3713 127.013 35.3713C127.013 35.3713 128.443 35.3713 129 35.3713Z" fill="#EEEEEE"/>
<path d="M125.177 35.3713C125.177 35.3713 124.92 36.3457 124.622 37.4522L122.079 46.9318H118.264L120.56 38.3605H114.73L112.434 46.9318H108.619L111.724 35.3713H125.177Z" fill="#EEEEEE"/>
<path d="M105.995 35.3713H109.81L106.706 46.9318H102.891L105.995 35.3713Z" fill="#EEEEEE"/>
<path d="M102.504 35.3713C103.462 35.3713 103.903 35.3713 103.903 35.3713L103.049 38.41C102.834 39.2193 102.504 40.1111 101.282 40.7717L100.803 41.0194L101.496 41.5314C102.372 42.1755 102.421 43.0838 102.207 43.893L101.711 45.7592C101.463 46.651 101.4 46.9318 101.4 46.9318H87.2109L90.3158 35.3713H102.504ZM98.5403 38.8394C98.6559 38.4265 98.5568 38.3605 98.1935 38.3605H93.3215L91.8352 43.9426H97.3182C97.6815 43.9426 97.8136 43.86 97.9292 43.4636C98.0118 43.1829 97.9788 42.9186 97.7971 42.6874L96.3273 40.8708L97.9953 39.5991C98.3091 39.3679 98.4577 39.1202 98.5403 38.8394Z" fill="#EEEEEE"/>
<path d="M86.6933 35.3713C87.6512 35.3713 88.4243 35.3713 88.4243 35.3713L87.6972 38.41C87.4825 39.2193 87.4462 39.2556 87.4462 39.2556L82.515 42.6379L86.3961 46.9318H81.1278L77.8578 42.9517L82.1682 39.6982C82.5811 39.4009 84.0021 38.3605 84.0021 38.3605C84.0021 38.3605 82.7462 38.3605 82.3829 38.3605H77.511L75.2154 46.9318H71.4004L74.5052 35.3713H86.6933Z" fill="#EEEEEE"/>
<path d="M69.2228 35.3713H73.0378L69.933 46.9318H56.4668C56.4668 46.9318 56.7374 45.9574 57.0347 44.8509L59.578 35.3713H63.393L61.0974 43.9426H66.9272L69.2228 35.3713Z" fill="#EEEEEE"/>
<path d="M46.4569 46.9318L48.7525 38.3605H43.6328L44.2852 35.3713H58.4303L57.6351 38.3605H52.5675L50.2719 46.9318H46.4569Z" fill="#EEEEEE"/>
<path d="M141.731 35.3922H155.26L154.402 38.376H144.688L144.277 39.9092H153.948C153.948 39.9092 153.705 40.8323 153.393 41.9698L152.619 44.8548C152.323 45.9923 152.096 46.9319 152.096 46.9319H138.365L139.106 43.9481H149.065L149.493 42.349H139.442L141.731 35.3922Z" fill="#EEEEEE"/>
<path d="M107.706 32.1899H113.966L110.798 17.4824H104.01L107.706 32.1899Z" fill="#EEEEEE"/>
<path d="M83.3047 32.1899H90.6585L101.482 17.4824H94.8067L83.3047 32.1899Z" fill="#EEEEEE"/>
<path d="M103.897 15.4465H110.384L109.215 10.0537H101.144L96.5059 15.4465H102.389H103.181H103.897Z" fill="#EEEEEE"/>
<rect x="92.4336" y="22.0452" width="15.3109" height="5.12878" fill="#EEEEEE"/>
<path d="M29.0441 21.5344C21.5179 24.9397 14.1259 28.2825 6.48004 31.7416C12.0647 23.4753 17.5186 15.4063 23.0613 7.20339C25.0752 12.0271 27.0342 16.7215 29.0441 21.5344Z" fill="#EEEEEE"/>
<path d="M21.7232 47.4363C16.8288 42.4281 12.1299 37.6183 7.32812 32.7024C11.6486 30.7433 15.8694 28.8309 20.2379 26.8527C20.7335 33.726 21.2206 40.4714 21.7232 47.4363Z" fill="#EEEEEE"/>
<path d="M21.5559 6.95505L16.7628 14.093L5.49609 6.95506L21.5576 6.95411L21.5559 6.95505Z" fill="#EEEEEE"/>
<path d="M20.6182 48.1628L16.1209 49.0466L17.0566 44.5824L20.6191 48.1631L20.6182 48.1628Z" fill="#EEEEEE"/>
<path d="M30.2404 21.0973C28.2189 16.2606 26.284 11.6306 24.2961 6.87464C29.0198 6.65425 33.6067 6.4389 38.381 6.2154C35.6512 11.2058 33.0008 16.0502 30.2404 21.0973Z" fill="#EEEEEE"/>
<path d="M42.5696 11.4852C40.8912 11.1355 39.3904 10.8247 37.7611 10.488C38.4599 9.20541 39.1091 8.01457 39.8172 6.71787L42.5696 11.4852Z" fill="#EEEEEE"/>
<path d="M167.09 14.0544V11.0836H168.139C168.335 11.0836 168.508 11.1208 168.657 11.1952C168.806 11.2697 168.921 11.376 169.004 11.5143C169.089 11.6525 169.132 11.8147 169.132 12.0007C169.132 12.2108 169.078 12.3889 168.972 12.5351C168.866 12.6813 168.722 12.7863 168.541 12.8501L169.231 14.0544H168.777L168.051 12.7664L168.31 12.9179H167.481V14.0544H167.09ZM167.481 12.559H168.151C168.268 12.559 168.37 12.5364 168.458 12.4912C168.545 12.446 168.613 12.3809 168.661 12.2958C168.711 12.2108 168.737 12.1124 168.737 12.0007C168.737 11.8864 168.711 11.7881 168.661 11.7057C168.613 11.6206 168.545 11.5555 168.458 11.5103C168.37 11.4651 168.268 11.4425 168.151 11.4425H167.481V12.559Z" fill="#EEEEEE"/>
<circle cx="168.077" cy="12.8452" r="2.32982" stroke="#EEEEEE" stroke-width="1.18889"/>
</svg>
